<svg width="80" height="80" viewBox="0 0 80 80" fill="none" xmlns="http://www.w3.org/2000/svg">
<circle cx="5" cy="5" r="5" fill="#E1CF63"/>
<circle cx="45" cy="5" r="5" fill="#E1CF63"/>
<circle cx="5" cy="45" r="5" fill="#E1CF63"/>
<circle cx="45" cy="45" r="5" fill="#E1CF63"/>
<circle cx="25" cy="5" r="5" fill="#E1CF63"/>
<circle cx="65" cy="5" r="5" fill="#E1CF63"/>
<circle cx="25" cy="45" r="5" fill="#E1CF63"/>
<circle cx="65" cy="45" r="5" fill="#E1CF63"/>
<circle cx="5" cy="25" r="5" fill="#E1CF63"/>
<circle cx="45" cy="25" r="5" fill="#E1CF63"/>
<circle cx="5" cy="65" r="5" fill="#E1CF63"/>
<circle cx="45" cy="65" r="5" fill="#E1CF63"/>
<circle cx="25" cy="25" r="5" fill="#E1CF63"/>
<circle cx="65" cy="25" r="5" fill="#E1CF63"/>
<circle cx="25" cy="65" r="5" fill="#E1CF63"/>
<circle cx="65" cy="65" r="5" fill="#E1CF63"/>
<circle cx="15" cy="5" r="5" fill="#E1CF63"/>
<circle cx="55" cy="5" r="5" fill="#E1CF63"/>
<circle cx="15" cy="45" r="5" fill="#E1CF63"/>
<circle cx="55" cy="45" r="5" fill="#E1CF63"/>
<circle cx="35" cy="5" r="5" fill="#E1CF63"/>
<circle cx="75" cy="5" r="5" fill="#E1CF63"/>
<circle cx="35" cy="45" r="5" fill="#E1CF63"/>
<circle cx="75" cy="45" r="5" fill="#E1CF63"/>
<circle cx="15" cy="25" r="5" fill="#E1CF63"/>
<circle cx="55" cy="25" r="5" fill="#E1CF63"/>
<circle cx="15" cy="65" r="5" fill="#E1CF63"/>
<circle cx="55" cy="65" r="5" fill="#E1CF63"/>
<circle cx="35" cy="25" r="5" fill="#E1CF63"/>
<circle cx="75" cy="25" r="5" fill="#E1CF63"/>
<circle cx="35" cy="65" r="5" fill="#E1CF63"/>
<circle cx="75" cy="65" r="5" fill="#E1CF63"/>
<circle cx="5" cy="15" r="5" fill="#E1CF63"/>
<circle cx="45" cy="15" r="5" fill="#E1CF63"/>
<circle cx="5" cy="55" r="5" fill="#E1CF63"/>
<circle cx="45" cy="55" r="5" fill="#E1CF63"/>
<circle cx="25" cy="15" r="5" fill="#E1CF63"/>
<circle cx="65" cy="15" r="5" fill="#E1CF63"/>
<circle cx="25" cy="55" r="5" fill="#E1CF63"/>
<circle cx="65" cy="55" r="5" fill="#E1CF63"/>
<circle cx="5" cy="35" r="5" fill="#E1CF63"/>
<circle cx="45" cy="35" r="5" fill="#E1CF63"/>
<circle cx="5" cy="75" r="5" fill="#E1CF63"/>
<circle cx="45" cy="75" r="5" fill="#E1CF63"/>
<circle cx="25" cy="35" r="5" fill="#E1CF63"/>
<circle cx="65" cy="35" r="5" fill="#E1CF63"/>
<circle cx="25" cy="75" r="5" fill="#E1CF63"/>
<circle cx="65" cy="75" r="5" fill="#E1CF63"/>
<circle cx="15" cy="15" r="5" fill="#E1CF63"/>
<circle cx="55" cy="15" r="5" fill="#E1CF63"/>
<circle cx="15" cy="55" r="5" fill="#E1CF63"/>
<circle cx="55" cy="55" r="5" fill="#E1CF63"/>
<circle cx="35" cy="15" r="5" fill="#E1CF63"/>
<circle cx="75" cy="15" r="5" fill="#E1CF63"/>
<circle cx="35" cy="55" r="5" fill="#E1CF63"/>
<circle cx="75" cy="55" r="5" fill="#E1CF63"/>
<circle cx="15" cy="35" r="5" fill="#E1CF63"/>
<circle cx="55" cy="35" r="5" fill="#E1CF63"/>
<circle cx="15" cy="75" r="5" fill="#E1CF63"/>
<circle cx="55" cy="75" r="5" fill="#E1CF63"/>
<circle cx="35" cy="35" r="5" fill="#E1CF63"/>
<circle cx="75" cy="35" r="5" fill="#E1CF63"/>
<circle cx="35" cy="75" r="5" fill="#E1CF63"/>
<circle cx="75" cy="75" r="5" fill="#E1CF63"/>
</svg>
