<svg width="22" height="22" viewBox="0 0 22 22" fill="none" xmlns="http://www.w3.org/2000/svg">
<path d="M19.002 11.001C20.1065 11.001 21.002 11.8964 21.002 13.001V19.001C21.002 20.1055 20.1065 21.001 19.002 21.001H13.002C11.8974 21.001 11.002 20.1055 11.002 19.001V13.001C11.002 11.8964 11.8974 11.001 13.002 11.001H19.002ZM9.00195 1.00098C10.1065 1.00098 11.002 1.89641 11.002 3.00098V9.00098C11.002 10.1055 10.1065 11.001 9.00195 11.001H3.00195C1.89738 11.001 1.00195 10.1055 1.00195 9.00098V3.00098C1.00195 1.89641 1.89738 1.00098 3.00195 1.00098H9.00195Z" fill="white"/>
</svg>
