<svg width="22" height="22" viewBox="0 0 22 22" fill="none" xmlns="http://www.w3.org/2000/svg">
<path d="M8.56542 3.083C9.00171 0.305668 13.0002 0.305668 13.4365 3.083L13.9023 6.04589C14.0684 7.10328 14.8977 7.93335 15.9551 8.0996L18.9189 8.56542C21.6963 9.00171 21.6963 13.0002 18.9189 13.4365L15.9551 13.9023C14.8978 14.0686 14.0685 14.8978 13.9023 15.9551L13.4365 18.9189C13.0002 21.6963 9.00171 21.6963 8.56542 18.9189L8.0996 15.9551C7.93341 14.8978 7.1041 14.0686 6.04686 13.9023L3.083 13.4365C0.305668 13.0002 0.305668 9.00171 3.083 8.56542L6.04686 8.0996C7.1042 7.93335 7.93349 7.10327 8.0996 6.04589L8.56542 3.083Z" fill="white"/>
</svg>
